<?xml version="1.0" encoding="UTF-8"?>
<svg version="1.1" viewBox="0 0 1624 1560" width="406" height="390" xmlns="http://www.w3.org/2000/svg">
<path transform="translate(452,78)" d="m0 0h33l13 1 26 5 24 8 21 10 20 13 16 13 18 18 11 14 5 7 1 3v106l-3-1-7-8-7-7v-2l-4-2-11-11-11-9-15-11-15-9-16-8-16-6-18-5-22-3h-26l-20 4-15 6-11 7-10 8-9 11-7 11-7 16-4 17-2 18 1 20 4 20 5 15 8 15 8 10 7 8 13 10 16 9 20 7 22 4 11 1 187 1 4 1 9-10 13-12 11-9 15-11 16-10 16-9 24-10 20-6 25-5 8-1 19-1h13l24 2 23 5 14 4 22 8 16 8 15 8 20 13 19 14 15 13 13 12 18 18 7 8 11 13 10 13 11 15 16 24 11 17 2 1 19-4 36-5 9-1h54l25 3 26 5 30 10 20 9 19 11 16 11 11 9 12 11 8 8 9 11 11 14 9 15 12 22 11 22 9 24 7 23 6 26 5 33 2 27v57l-3 29-5 29-7 28-10 29-12 26-11 20-10 17-10 13-11 13-9 10-16 16-11 9-13 10-17 11-21 11-26 10-26 7-24 4-17 2h-39l-23-3-22-4-21-6-17-6-18-8-21-11-6-4-7 1-15 9-24 12-27 11-26 8-31 7-20 3-18 2-16 1h-29l-25-2-27-4-25-6-3-1v10l-4 36-5 28-6 25-9 27-9 21-10 19-14 22-13 16-12 14-11 11-11 9-12 10-21 13-24 12-19 7-15 5-23 5-18 3-25 2h-39l-30-3-30-6-23-7-21-9-21-11-12-8-16-12-12-11-16-16-11-14-13-18-9-15-10-18-8-18-9-25-7-26-5-27-4-38-1-22v-18l2-34 4-32 5-25 8-29 10-26 12-25 9-16 12-18 9-12 11-13 11-12 7-7 8-7 13-11 4-3-12-8-16-12-12-11-8-7-7-7-7-8-13-17-13-21-9-19-7-19-6-25-4-26-1-16v-25l2-24 5-25 6-21 10-23 11-19 8-11 11-14 21-21 14-11 2-1-1-3-8-7-12-12-9-11-10-14-9-16-8-17-9-27-5-25-3-24v-41l3-26 6-25 7-20 9-19 10-16 9-12 13-15 8-8 8-7 13-10 15-10 23-12 16-6 17-5 24-4z" fill="#83400F"/>
<path transform="translate(360,863)" d="m0 0 6 1 22 12 17 7 27 8 33 6 21 2h50l36-5 18-3 18-5 6-2h8l1 32 4 46 4 19 3 9 1 1 1 9v7h2l3 9 1 4h2l-1 4 1 4 4 1 14 28 6 8 12 17 14 15v2h2l7 8 14 12 14 10 21 12 17 8 21 9 3 1v10l-4 36-5 28-6 25-9 27-9 21-10 19-14 22-13 16-12 14-11 11-11 9-12 10-21 13-24 12-19 7-15 5-23 5-18 3-25 2h-39l-30-3-30-6-23-7-21-9-21-11-12-8-16-12-12-11-16-16-11-14-13-18-9-15-10-18-8-18-9-25-7-26-5-27-4-38-1-22v-18l2-34 4-32 5-25 8-29 10-26 12-25 9-16 12-18 9-12 11-13 11-12 7-7 8-7 13-11z" fill="#806003"/>
<path transform="translate(1190,624)" d="m0 0h39l22 4 18 6 17 8 15 10 10 8 13 12 9 10 13 18 10 18 8 18 7 21 5 22 3 22 1 15v32l-2 26-4 25-6 24-8 23-11 23-10 16-9 12-12 14-11 10-14 10-19 10-15 5-13 3-9 1h-24l-27-4-21-6-21-8-22-11-22-13-11-7-2-1-2 2-2-5-22 12-17 9-27 11-24 8-24 6-23 4-19 2-16 1h-30l-24-3-16-3-21-7-16-8-11-7-13-11-11-14-11-21-8-21-5-26-1-14v-25l2-19 6-25 8-20 8-14 10-13 14-14 13-9 25-13 28-11 35-11 38-10 47-12 33-10 3 1 1 167h232l-1-111-110-1-1-13v-62l1-53 5-3 23-6 17-3z" fill="#FEFDFD"/>
<path transform="translate(839,447)" d="m0 0h33l20 3 16 5 15 6 14 8 16 11 15 13 14 14 9 11 13 17 10 15 10 16v4l-15 9-17 9-19 8-22 8-35 10-79 20-40 12-28 10-25 12-17 11-17 13-15 14-7 7-1 2h-2l-2 4-9 11-9 13-4 5-18 8-23 8-16 5-31 7-23 3-12 1h-43l-27-4-26-8-17-8-11-7-11-9-13-13-10-15-6-12-6-18-3-20v-23l2-17 5-18 8-16 6-10 11-13 13-11 13-8 17-8 21-6 24-4 12-1h188l6-7 11-9 12-10 16-12 12-8 13-8 18-10 24-10 20-6z" fill="#864512"/>
<path transform="translate(499,926)" d="m0 0h32l16 3 21 7 11 6 12 8 12 11 10 10 10 14 8 14 8 17 6 17 6 20 5 26 3 28 1 22v25l-2 35-5 32-7 26-6 16-8 17-9 14-9 11-8 9-11 9-14 9-15 7-21 6-12 2h-38l-19-3-16-5-12-5-16-9-14-12-7-7-11-15-9-16-8-20-6-19-5-25-4-33-1-17v-37l3-35 5-29 7-27 8-21 10-20 8-12 10-13 14-14 21-14 15-7 23-5z" fill="#FEFDFD"/>
<path transform="translate(839,447)" d="m0 0h33l20 3 16 5 15 6 14 8 16 11 15 13 14 14 9 11 13 17 10 15 10 16v4l-15 9-17 9-19 8-22 8-35 10-79 20-40 12-28 10-25 12-17 11-17 13-15 14-7 7-1 2h-2l-2 4-9 11-9 13-4 5-18 8-23 8-16 5-31 7-23 3-12 1h-43l-27-4-26-8-17-8-11-7-11-9-13-13-10-15-6-12-6-18-3-20v-23l2-17 5-18 8-16 6-10 11-13 13-11 13-8 17-8 21-6 24-4 12-1h188l6-7 11-9 12-10 16-12 12-8 13-8 18-10 24-10 20-6zm21 30-52 5-16 3-8 4-15 9-21 13-14 9-13 11-8 8-8 7-4 4-3 1-75 3h-38l-67-3 1-4-9-3h-23l-12 3-12 5-11 7-11 9-14 8-16 8-4 5-8 16-3 8-1 15v44l8 16 15 26 7 11 13 8 17 9 18 10 12 6 9 1 43 2h32l48-8 10-3 4-4 26-39 9-13 11-8 29-19 13-8 27-15 22-12 13-4 70-15 15-5 28-11 51-20 4-2 9-30v-7l-9-10-7-8-5-6-12-12-32-15-23-10z" fill="#FEFDFD"/>
<path transform="translate(818,535)" d="m0 0h19l35 12 11 8 10 8 2 3-2 9-3 5-14 5-35 10-19 5-47 8-15 3-22 8-30 13-22 11-8 6-13 13-7 8-5 6-3 2-12 1 2-5 2-4-5 2-2 4-7 4-11 2h-37l-25-1-12-2-19-8-14-6-6-7-8-22-3-16-2 4-3 5-2 5h-1l1-26 5-10 5-5 8-4 34-12 5-1h153l14-2 10-6 15-10 19-9 23-10 11-2z" fill="#FCFCFC"/>
<path transform="translate(860,483)" d="m0 0h9l16 7 24 11 12 6 7 6 7 8 11 12 6 9-2 10-6 18-15 7-16 6-27 11-27 10-23 6-52 11-15 4-27 14-24 14-14 8-30 20-12 9-12 17-13 19-12 18-9 3-42 7-10 1 4-2 10-4 14-7 14-11 9-10 11-16 8-15 3-5 16-3 3-1 2-4 17-17 7-8 10-6 16-8 20-9 27-11 14-4 56-9 25-7 39-12 5-2 7-17-1-5-10-8-13-10-15-6-25-8h-20l-35 3-18 6-28 13-15 9-8 6-8 3-14 1h-150l-21 7-24 9-8 6-6 12-1 5v29l3 4-1 11v32l4 20 7 16 7 11 8 8 13 8 5 3v1h-26l-13-1-10-4-13-8-27-14-8-6-7-9-13-23-8-15-1-7v-44l2-11 9-20 6-5 10-5 3 1-9 13-8 19-3 13-1 8v31l3 13 7 16 7 11 10 11 10 7 16 8 10 4-13-26-6-21-2-12v-27l2-14 6-20 6-13 6-11 12-16 13-13 8-5h19l54 2h52l60-2 11-1 8-7 12-11 14-13 19-12 23-14 17-10 13-2z" fill="#FEFDFD"/>
<path transform="translate(901,816)" d="m0 0 16 1 12 3 16 8 13 10 8 10 8 14 4 13 2 18-2 17-4 12-7 13-9 11-12 10-14 7-13 4-6 1h-20l-18-5-12-6-15-12-9-12-7-14-4-17v-18l3-16 8-16 4-6 9-10 10-8 14-7 13-4z" fill="#83410F"/>
<path transform="translate(771,559)" d="m0 0h27l21 6 10 5 10 8-1 5-3 6-9 4-29 7-30 5-19 3-27 8-20 8-9 6-12 11-12 3-20 2h-16l-19-1-11-2-21-7-9-7-7-8-2-8 1-13 4-6 5-4 11-4 14-4 7-1 101-1 11-3 17-8 17-6 14-3z" fill="#82450D"/>
<path transform="translate(898,841)" d="m0 0h13l13 4 9 5 10 9 6 9 4 9 2 9v12l-3 11-4 9-7 10-7 6-14 7-9 2h-14l-11-2-13-7-8-7-8-13-4-12-1-10 2-13 5-12 10-13 8-6 11-5z" fill="#4DBAB5"/>
<path transform="translate(534,1027)" d="m0 0 5 1 1 11-1 22-3 22-2 10v20l3 23 3 14 10 18 1 5-5 20-10 24-9 10-10 8-13 3-8-1-9-4-6-5-2-10v-14l4-15 12-28 7-19 7-21 1-6-5-18-2-14v-14l5-17 6-10 10-10z" fill="#FEFDFD"/>
<path transform="translate(535,1012)" d="m0 0 6 1 11 9 1 4v12l-2 30-4 25v25l4 24 4 9 9 15v7l-5 22-10 24-7 11-8 8-11 8-21 5-7-1-15-6-6-4-6-8-1-2-1-17v-13l4-12 16-38 7-20 3-9v-10l-4-16-2-14v-12l8-26 6-9 13-13 16-8zm-1 15-10 5-11 11-6 12-4 14v14l3 18 4 16-5 16-8 23-11 26-5 13-2 9v14l2 10 7 6 12 4 9-1 10-3 13-12 6-9 9-23 4-17-1-5-10-18-4-20-2-17v-20l4-23 1-9 1-28-2-6z" fill="#9A5929"/>
<path transform="translate(780,564)" d="m0 0h16l21 6 11 6 6 5-2 4-6 3-22 5-17 4-5-1 4-8-14-7-9-2h-14l-13 2-17 6-5 2-6 1h-55l-13 3-6 5-1 2 1 9 5 6 9 4 15 3h16l14-1v2l-8 7-7 6-5 2-20 2h-34l-15-2-16-5-9-5-7-7-3-6v-13l4-6 11-5 18-5 90-1 19-1 12-5 17-7 19-6z" fill="#FCFCFC"/>
<path transform="translate(488,651)" d="m0 0 6 5 8 11 10 13 5 5v2l4 2 8 7 16 8 12 3h24l18-4 16-7 11-6 2 1-9 16-13 16-10 10-14 9-11 5-12 3h-19l-13-4-9-5-10-9-7-8-6-11-5-14-2-11-1-11v-11z" fill="#826207"/>
<path transform="translate(771,559)" d="m0 0h27l21 6 10 5 10 8-1 5-3 6-9 4-29 7-30 5h-8v-3l16-2 3 1v-2l2-1 13-2 7-1v-2l26-6 6-3v-4l-11-7-11-4-14-4h-16l-21 2-27 9-18 8-3 1-19 1-90 1-18 5-12 6-2 4v13l5 8 7 6 11 5 5 3 5 1 3 2 4 2 48 1-4 2-6 1h-16l-19-1-11-2-21-7-9-7-7-8-2-8 1-13 4-6 5-4 11-4 14-4 7-1 101-1 11-3 17-8 17-6 14-3z" fill="#824A0C"/>
<path transform="translate(756,583)" d="m0 0h6l-4 2-9 4h-3l-1 2-3-1-1 4-29 12-19 1h-85v-1l102-2 2-4 10-4 13-6 17-6z" fill="#82470C"/>
<path transform="translate(540,1042)" d="m0 0h1l1 9 2 4-1 2h2v2l3 1 2-4 1 4v8l-3 18h-4l-3-3v-6l-2-1v-23z" fill="#844310"/>
<path transform="translate(494,664)" d="m0 0 3 1 7 13 10 13 12 10 16 8 10 3 7 1h20l16-4 13-6h2l-1 5-4 9-4 6-10 10-9 5-3-1 4-3 2-4 3-1 4-6 5-5 2-3-11 5-7 1v2h-9l1-3 2-1h-14l-30-8-11-7-5-5-8-10-3-5-4-3-2-5-2 18-1 2 2 2-1 2v8l-2-3-3-11v-17l2-12z" fill="#844410"/>
<path transform="translate(500,1119)" d="m0 0 3 1-2 13-2 1v7l2 3-1 7-15 36h-2l1-4 3-8-2-1v-1h-2l-3 9-3 2-1 8h-3l-1 19v18l-5 1-1-17v-13l4-12 16-38 7-20 4-10z" fill="#854411"/>
<path transform="translate(505,701)" d="m0 0 8 6 9 7 12 6 13 4 11 1h10l11-1v3l-5 3-7 2h-21l-12-3-12-6-11-9-6-9z" fill="#E1F2F1"/>
<path transform="translate(730,582)" d="m0 0h2l1 2 8-2 15 1v1l-14 1-15 4-9 4-17 2h-46l-14 3-1-3 10-2h2v-2l-3-1 4-1h55l9-2z" fill="#806003"/>
<path transform="translate(450,579)" d="m0 0 1 2-12 25-5 16-4 19-1 8-1 25h-3l-2-12v-13l3-20 6-20 8-16 7-11z" fill="#D9EFEE"/>
<path transform="translate(557,1158)" d="m0 0 3 1 4 7v7l-5 2-3 1 1 6h-2l-4 10-2 7-3 7-2 7-4 2-2 4-7 9h-2l-2 4-5 2 2-5 9-9 7-14 6-16 5-23h3v6h3l1-5 1-1-2-4h-2v-4z" fill="#854511"/>
<path transform="translate(431,642)" d="m0 0h1v24l4 1 4 14 3 11v3h-4v2l-5-1-3-3-1-3 2-1 5 2v-3h-7l-6-5-2-9h2v-5h1l1 5h1l1-25 2-2z" fill="#806003"/>
<path transform="translate(795,594)" d="m0 0h5l-4 2-6 2-12 1v2l-15 1-4 2v2l-19 4-30 10-14 7-11 9-7 6-16 3h-8v-1l-45-1-3-2-8-3-1-2 11 2 11 1h34l20-2 6-3 10-9 4-2 1-3 13-8 13-5 7-2h6v-2l6-2 7-1 1-2 16-1 11-2h8l5 1z" fill="#82480C"/>
<path transform="translate(494,664)" d="m0 0h23l1 2-3 2h-18l-6 1-2-1v-2z" fill="#83420F"/>
<path transform="translate(508,755)" d="m0 0h2v3h5v-3l7 1 7 3v1h-13l-22-1-9-1v-1l8-1 2 1 10 1v-2z" fill="#9A5A29"/>
<path transform="translate(516,701)" d="m0 0 14 8 8 4v3l-9-2-11-7z" fill="#9C5A2C"/>
<path transform="translate(443,573)" d="m0 0h2v4l-2 1-3 5-8 13-3-1 7-14 2-2z" fill="#BB8E6F"/>
<path transform="translate(758,561)" d="m0 0 6 1v2l2 2-14 3-11 3v-3l4-1 12-5z" fill="#806003"/>
<path transform="translate(335,125)" d="m0 0 2 1-28 28v-3l14-15z" fill="#90501E"/>
<path transform="translate(467,743)" d="m0 0 4 2h4l5 3-1 2-6 2-8-4v-3h2z" fill="#8E4B1C"/>
<path transform="translate(617,686)" d="m0 0h6v2l-4 1-1-1h-55v-1z" fill="#9C5A2C"/>
<path transform="translate(645,591)" d="m0 0h7v2l-10 2h-2l1 4-2 3 1 6 5 4 7 3 7 1 19 1h9l-3 2-10 2 5 1v1h-16l-15-3-9-4-6-7-1-9 5-6 3-2z" fill="#82460D"/>
<path transform="translate(557,1158)" d="m0 0 3 1 4 7v7l-1-3h-2v-3l-4-2v-2h-2v-4z" fill="#8A4A17"/>
<path transform="translate(525,1237)" d="m0 0h2v2h3l-2 4-5 3h-4l2-6z" fill="#844410"/>
<path transform="translate(634,597)" d="m0 0 1 2 4 1-2 6-4 3-1-9z" fill="#815F05"/>
<path transform="translate(597,715)" d="m0 0h2l-2 5-7 6-3-1 4-6z" fill="#F2F8F8"/>
<path transform="translate(464,568)" d="m0 0h4l-1 5-2 2-5-1v-4z" fill="#FEFDFD"/>
<path transform="translate(634,1006)" d="m0 0 4 1 3 9 1 4h2l-1 4h-2z" fill="#8A5D12"/>
<path transform="translate(711,610)" d="m0 0m-2 1 5 1v2l-14 5-2-1 9-6z" fill="#70C7C3"/>
<path transform="translate(638,606)" d="m0 0 7 6 5 2-4 1h-5l-4-3z" fill="#816005"/>
<path transform="translate(539,1057)" d="m0 0h1v15l1 2h-3l-1 3 1-16z" fill="#975A25"/>
<path transform="translate(409,639)" d="m0 0 2 3 1 8-2 11h-1z" fill="#894716"/>
<path transform="translate(585,730)" d="m0 0 5 1-1 3-7 4-3-1 4-3z" fill="#83460D"/>
<path transform="translate(492,1152)" d="m0 0 1 2-3 9h-2v3h-2l2-5 1-3-2-1 2-2v-2z" fill="#9C5A2C"/>
<path transform="translate(506,1107)" d="m0 0h3v8h-2l-1 2-2-1v-6h3z" fill="#844210"/>
<path transform="translate(469,559)" d="m0 0h5l-2 1v2l-9 2-5 1 3-3z" fill="#9C5A2C"/>
<path transform="translate(535,1220)" d="m0 0v3l-4 5h-2l-2 4-5 2 6-7z" fill="#83400F"/>
<path transform="translate(436,631)" d="m0 0h1v9l-2 11h-1v-13z" fill="#B78766"/>
<path transform="translate(777,583)" d="m0 0 6 2 4 4-4 4v-3l1-2h-4z" fill="#826006"/>
<path transform="translate(734,606)" d="m0 0h8l-2 4-8 2z" fill="#814C0A"/>
<path transform="translate(526,751)" d="m0 0h5l4 4h-9l-5-1v-1l5-1z" fill="#9C5A2C"/>
<path transform="translate(637,605)" d="m0 0 1 4-1 3 4 2-2 2-5-5v-5z" fill="#85480F"/>
<path transform="translate(431,689)" d="m0 0 5 2 1 5-5-1-2-5z" fill="#FEFDFD"/>
<path transform="translate(576,724)" d="m0 0 4 1-4 4-2-1v-1l-6-1v-1z" fill="#4DBAB5"/>
<path transform="translate(419,620)" d="m0 0 2 4-1 9-1-2-3 1v-3h2z" fill="#875F0D"/>
</svg>